<mxfile host="app.diagrams.net" modified="2022-12-01T14:56:10.371Z" agent="5.0 (Windows NT 10.0; Win64; x64) AppleWebKit/537.36 (KHTML, like Gecko) Chrome/107.0.0.0 Safari/537.36" etag="0YeNcveiATiQUYmUUeWB" version="20.5.3" type="github">
  <diagram id="oScKFl7giU6PCCe_X4H9" name="Seite-1">
    <mxGraphModel dx="1221" dy="671" grid="1" gridSize="10" guides="1" tooltips="1" connect="1" arrows="1" fold="1" page="1" pageScale="1" pageWidth="827" pageHeight="1169" math="0" shadow="0">
      <root>
        <mxCell id="0" />
        <mxCell id="1" parent="0" />
        <mxCell id="-YtD60hfHTa39ohMz7sw-1" value="User Data" style="rounded=0;whiteSpace=wrap;html=1;fillColor=#F5F5F5;" vertex="1" parent="1">
          <mxGeometry x="40" y="40" width="600" height="40" as="geometry" />
        </mxCell>
        <mxCell id="-YtD60hfHTa39ohMz7sw-30" style="edgeStyle=orthogonalEdgeStyle;rounded=0;orthogonalLoop=1;jettySize=auto;html=1;exitX=0.5;exitY=0;exitDx=0;exitDy=0;entryX=0.5;entryY=1;entryDx=0;entryDy=0;startArrow=none;startFill=0;endArrow=classic;endFill=1;" edge="1" parent="1" source="-YtD60hfHTa39ohMz7sw-3" target="-YtD60hfHTa39ohMz7sw-1">
          <mxGeometry relative="1" as="geometry" />
        </mxCell>
        <mxCell id="-YtD60hfHTa39ohMz7sw-3" value="Message Handling" style="whiteSpace=wrap;html=1;rounded=0;fillColor=#F5F5F5;" vertex="1" parent="1">
          <mxGeometry x="40" y="120" width="600" height="40" as="geometry" />
        </mxCell>
        <mxCell id="-YtD60hfHTa39ohMz7sw-33" style="edgeStyle=orthogonalEdgeStyle;rounded=0;orthogonalLoop=1;jettySize=auto;html=1;exitX=0.5;exitY=0;exitDx=0;exitDy=0;entryX=0.799;entryY=1.1;entryDx=0;entryDy=0;entryPerimeter=0;startArrow=classic;startFill=1;endArrow=none;endFill=0;" edge="1" parent="1" source="-YtD60hfHTa39ohMz7sw-5" target="-YtD60hfHTa39ohMz7sw-13">
          <mxGeometry relative="1" as="geometry" />
        </mxCell>
        <mxCell id="-YtD60hfHTa39ohMz7sw-5" value="Websocket" style="whiteSpace=wrap;html=1;rounded=0;fillColor=#DEDEDE;" vertex="1" parent="1">
          <mxGeometry x="400" y="360" width="240" height="40" as="geometry" />
        </mxCell>
        <mxCell id="-YtD60hfHTa39ohMz7sw-37" style="edgeStyle=orthogonalEdgeStyle;rounded=0;orthogonalLoop=1;jettySize=auto;html=1;exitX=0.5;exitY=0;exitDx=0;exitDy=0;entryX=0.5;entryY=1;entryDx=0;entryDy=0;startArrow=classic;startFill=1;endArrow=none;endFill=0;" edge="1" parent="1" source="-YtD60hfHTa39ohMz7sw-6" target="-YtD60hfHTa39ohMz7sw-5">
          <mxGeometry relative="1" as="geometry" />
        </mxCell>
        <mxCell id="-YtD60hfHTa39ohMz7sw-6" value="Async Webserver" style="rounded=0;whiteSpace=wrap;html=1;fillColor=#DEDEDE;" vertex="1" parent="1">
          <mxGeometry x="440" y="440" width="160" height="40" as="geometry" />
        </mxCell>
        <mxCell id="-YtD60hfHTa39ohMz7sw-39" style="edgeStyle=orthogonalEdgeStyle;rounded=0;orthogonalLoop=1;jettySize=auto;html=1;exitX=0.5;exitY=0;exitDx=0;exitDy=0;entryX=0.5;entryY=1;entryDx=0;entryDy=0;startArrow=classic;startFill=1;endArrow=none;endFill=0;" edge="1" parent="1" source="-YtD60hfHTa39ohMz7sw-7" target="-YtD60hfHTa39ohMz7sw-11">
          <mxGeometry relative="1" as="geometry" />
        </mxCell>
        <mxCell id="-YtD60hfHTa39ohMz7sw-40" style="edgeStyle=orthogonalEdgeStyle;rounded=0;orthogonalLoop=1;jettySize=auto;html=1;exitX=0.5;exitY=1;exitDx=0;exitDy=0;entryX=0.799;entryY=0.02;entryDx=0;entryDy=0;entryPerimeter=0;startArrow=none;startFill=0;endArrow=classic;endFill=1;" edge="1" parent="1" source="-YtD60hfHTa39ohMz7sw-7" target="-YtD60hfHTa39ohMz7sw-8">
          <mxGeometry relative="1" as="geometry" />
        </mxCell>
        <mxCell id="-YtD60hfHTa39ohMz7sw-7" value="TCP/IP STACK" style="rounded=0;whiteSpace=wrap;html=1;fillColor=#DEDEDE;" vertex="1" parent="1">
          <mxGeometry x="440" y="600" width="160" height="40" as="geometry" />
        </mxCell>
        <mxCell id="-YtD60hfHTa39ohMz7sw-8" value="Hardware Control" style="rounded=0;whiteSpace=wrap;html=1;fillColor=#DEDEDE;" vertex="1" parent="1">
          <mxGeometry x="40" y="680" width="600" height="40" as="geometry" />
        </mxCell>
        <mxCell id="-YtD60hfHTa39ohMz7sw-34" style="edgeStyle=orthogonalEdgeStyle;rounded=0;orthogonalLoop=1;jettySize=auto;html=1;exitX=0.5;exitY=0;exitDx=0;exitDy=0;entryX=0.2;entryY=1.07;entryDx=0;entryDy=0;entryPerimeter=0;startArrow=classic;startFill=1;endArrow=none;endFill=0;" edge="1" parent="1" source="-YtD60hfHTa39ohMz7sw-9" target="-YtD60hfHTa39ohMz7sw-13">
          <mxGeometry relative="1" as="geometry" />
        </mxCell>
        <mxCell id="-YtD60hfHTa39ohMz7sw-9" value="File-System" style="rounded=0;whiteSpace=wrap;html=1;fillColor=#DEDEDE;" vertex="1" parent="1">
          <mxGeometry x="40" y="360" width="240" height="40" as="geometry" />
        </mxCell>
        <mxCell id="-YtD60hfHTa39ohMz7sw-36" style="edgeStyle=orthogonalEdgeStyle;rounded=0;orthogonalLoop=1;jettySize=auto;html=1;exitX=0.5;exitY=0;exitDx=0;exitDy=0;entryX=0.5;entryY=1;entryDx=0;entryDy=0;startArrow=classic;startFill=1;endArrow=none;endFill=0;" edge="1" parent="1" source="-YtD60hfHTa39ohMz7sw-10" target="-YtD60hfHTa39ohMz7sw-9">
          <mxGeometry relative="1" as="geometry" />
        </mxCell>
        <mxCell id="-YtD60hfHTa39ohMz7sw-10" value="Buffering mechanism" style="rounded=0;whiteSpace=wrap;html=1;fillColor=#DEDEDE;" vertex="1" parent="1">
          <mxGeometry x="80" y="440" width="160" height="40" as="geometry" />
        </mxCell>
        <mxCell id="-YtD60hfHTa39ohMz7sw-38" style="edgeStyle=orthogonalEdgeStyle;rounded=0;orthogonalLoop=1;jettySize=auto;html=1;exitX=0.5;exitY=0;exitDx=0;exitDy=0;entryX=0.5;entryY=1;entryDx=0;entryDy=0;startArrow=classic;startFill=1;endArrow=none;endFill=0;" edge="1" parent="1" source="-YtD60hfHTa39ohMz7sw-11" target="-YtD60hfHTa39ohMz7sw-6">
          <mxGeometry relative="1" as="geometry" />
        </mxCell>
        <mxCell id="-YtD60hfHTa39ohMz7sw-11" value="Buffering mechanism" style="rounded=0;whiteSpace=wrap;html=1;fillColor=#DEDEDE;" vertex="1" parent="1">
          <mxGeometry x="440" y="520" width="160" height="40" as="geometry" />
        </mxCell>
        <mxCell id="-YtD60hfHTa39ohMz7sw-41" style="edgeStyle=orthogonalEdgeStyle;rounded=0;orthogonalLoop=1;jettySize=auto;html=1;exitX=0.5;exitY=1;exitDx=0;exitDy=0;entryX=0.201;entryY=0.12;entryDx=0;entryDy=0;entryPerimeter=0;startArrow=none;startFill=0;endArrow=classic;endFill=1;" edge="1" parent="1" source="-YtD60hfHTa39ohMz7sw-12" target="-YtD60hfHTa39ohMz7sw-8">
          <mxGeometry relative="1" as="geometry" />
        </mxCell>
        <mxCell id="-YtD60hfHTa39ohMz7sw-42" style="edgeStyle=orthogonalEdgeStyle;rounded=0;orthogonalLoop=1;jettySize=auto;html=1;exitX=0.5;exitY=0;exitDx=0;exitDy=0;entryX=0.5;entryY=1;entryDx=0;entryDy=0;startArrow=classic;startFill=1;endArrow=none;endFill=0;" edge="1" parent="1" source="-YtD60hfHTa39ohMz7sw-12" target="-YtD60hfHTa39ohMz7sw-10">
          <mxGeometry relative="1" as="geometry" />
        </mxCell>
        <mxCell id="-YtD60hfHTa39ohMz7sw-12" value="Block I/O device driver" style="rounded=0;whiteSpace=wrap;html=1;fillColor=#DEDEDE;" vertex="1" parent="1">
          <mxGeometry x="80" y="520" width="160" height="40" as="geometry" />
        </mxCell>
        <mxCell id="-YtD60hfHTa39ohMz7sw-13" value="Libraries" style="rounded=0;whiteSpace=wrap;html=1;fillColor=#DEDEDE;" vertex="1" parent="1">
          <mxGeometry x="40" y="280" width="600" height="40" as="geometry" />
        </mxCell>
        <mxCell id="-YtD60hfHTa39ohMz7sw-31" style="edgeStyle=orthogonalEdgeStyle;rounded=0;orthogonalLoop=1;jettySize=auto;html=1;exitX=0.5;exitY=0;exitDx=0;exitDy=0;entryX=0.5;entryY=1;entryDx=0;entryDy=0;startArrow=none;startFill=0;endArrow=classic;endFill=1;" edge="1" parent="1" source="-YtD60hfHTa39ohMz7sw-15" target="-YtD60hfHTa39ohMz7sw-3">
          <mxGeometry relative="1" as="geometry" />
        </mxCell>
        <mxCell id="-YtD60hfHTa39ohMz7sw-32" style="edgeStyle=orthogonalEdgeStyle;rounded=0;orthogonalLoop=1;jettySize=auto;html=1;exitX=0.5;exitY=1;exitDx=0;exitDy=0;entryX=0.5;entryY=0;entryDx=0;entryDy=0;startArrow=none;startFill=0;endArrow=classic;endFill=1;" edge="1" parent="1" source="-YtD60hfHTa39ohMz7sw-15" target="-YtD60hfHTa39ohMz7sw-13">
          <mxGeometry relative="1" as="geometry" />
        </mxCell>
        <mxCell id="-YtD60hfHTa39ohMz7sw-15" value="Connection Handling" style="rounded=0;whiteSpace=wrap;html=1;fillColor=#F5F5F5;" vertex="1" parent="1">
          <mxGeometry x="40" y="200" width="600" height="40" as="geometry" />
        </mxCell>
        <mxCell id="-YtD60hfHTa39ohMz7sw-43" value="" style="rounded=0;whiteSpace=wrap;html=1;fillColor=#FFFFFF;align=left;" vertex="1" parent="1">
          <mxGeometry x="90" y="760" width="500" height="80" as="geometry" />
        </mxCell>
        <mxCell id="-YtD60hfHTa39ohMz7sw-44" value="" style="rounded=0;whiteSpace=wrap;html=1;fillColor=#F5F5F5;" vertex="1" parent="1">
          <mxGeometry x="100" y="805" width="60" height="20" as="geometry" />
        </mxCell>
        <mxCell id="-YtD60hfHTa39ohMz7sw-45" value="" style="rounded=0;whiteSpace=wrap;html=1;fillColor=#DEDEDE;" vertex="1" parent="1">
          <mxGeometry x="280" y="805" width="60" height="20" as="geometry" />
        </mxCell>
        <mxCell id="-YtD60hfHTa39ohMz7sw-47" value="" style="endArrow=classic;html=1;rounded=0;" edge="1" parent="1">
          <mxGeometry width="50" height="50" relative="1" as="geometry">
            <mxPoint x="490" y="800" as="sourcePoint" />
            <mxPoint x="490" y="830" as="targetPoint" />
            <Array as="points">
              <mxPoint x="490" y="810" />
            </Array>
          </mxGeometry>
        </mxCell>
        <mxCell id="-YtD60hfHTa39ohMz7sw-48" value="Hardware Specific&lt;br&gt;Layer" style="text;html=1;strokeColor=none;fillColor=none;align=center;verticalAlign=middle;whiteSpace=wrap;rounded=0;" vertex="1" parent="1">
          <mxGeometry x="344" y="800" width="106" height="30" as="geometry" />
        </mxCell>
        <mxCell id="-YtD60hfHTa39ohMz7sw-49" value="Project Specific Layer" style="text;html=1;strokeColor=none;fillColor=none;align=center;verticalAlign=middle;whiteSpace=wrap;rounded=0;" vertex="1" parent="1">
          <mxGeometry x="160" y="800" width="100" height="30" as="geometry" />
        </mxCell>
        <mxCell id="-YtD60hfHTa39ohMz7sw-51" value="Key" style="text;html=1;strokeColor=none;fillColor=none;align=center;verticalAlign=middle;whiteSpace=wrap;rounded=0;" vertex="1" parent="1">
          <mxGeometry x="90" y="760" width="60" height="30" as="geometry" />
        </mxCell>
        <mxCell id="-YtD60hfHTa39ohMz7sw-52" value="Allowed to use" style="text;html=1;strokeColor=none;fillColor=none;align=center;verticalAlign=middle;whiteSpace=wrap;rounded=0;" vertex="1" parent="1">
          <mxGeometry x="500" y="800" width="60" height="30" as="geometry" />
        </mxCell>
      </root>
    </mxGraphModel>
  </diagram>
</mxfile>
